<?xml version="1.0" encoding="UTF-8"?>
<svg width="39px" height="36px" viewBox="0 0 39 36" version="1.1" xmlns="http://www.w3.org/2000/svg" xmlns:xlink="http://www.w3.org/1999/xlink">
    <title>chat</title>
    <g id="Symbols" stroke="none" stroke-width="1" fill="none" fill-rule="evenodd">
        <g id="Header" transform="translate(-340.000000, -46.000000)">
            <g id="chat" transform="translate(340.000000, 46.000000)">
                <ellipse id="Oval" fill="#FECD00" cx="19.5" cy="18" rx="19.5" ry="18"></ellipse>
                <path d="M20.3125,7.8 C26.3255002,7.8 31.2,12.3666956 31.2,18 C31.2,23.6333044 26.3255002,28.2 20.3125,28.2 C14.2994998,28.2 9.425,23.6333044 9.425,18 C9.425,12.3666956 14.2994998,7.8 20.3125,7.8 Z M15.1125,16.8 C14.4842761,16.8 13.975,17.3372583 13.975,18 C13.975,18.6627417 14.4842761,19.2 15.1125,19.2 C15.7407239,19.2 16.25,18.6627417 16.25,18 C16.25,17.3372583 15.7407239,16.8 15.1125,16.8 Z M20.3125,16.8 C19.6842761,16.8 19.175,17.3372583 19.175,18 C19.175,18.6627417 19.6842761,19.2 20.3125,19.2 C20.9407239,19.2 21.45,18.6627417 21.45,18 C21.45,17.3372583 20.9407239,16.8 20.3125,16.8 Z M25.8375,16.8 C25.2092761,16.8 24.7,17.3372583 24.7,18 C24.7,18.6627417 25.2092761,19.2 25.8375,19.2 C26.4657239,19.2 26.975,18.6627417 26.975,18 C26.975,17.3372583 26.4657239,16.8 25.8375,16.8 Z" id="Combined-Shape" fill="#1696FF"></path>
                <path d="M11.531357,24.6 C11.4341135,25.5927829 11.2667828,26.3427829 11.029365,26.85 C10.7919471,27.3572171 10.2571588,28.1072171 9.425,29.1 L14.3,26.85 L11.531357,24.6 Z" id="Path" stroke="#1696FF" stroke-width="2" fill="#1696FF" stroke-linejoin="round"></path>
            </g>
        </g>
    </g>
</svg>